<svg xmlns="http://www.w3.org/2000/svg" viewBox="0 0 64 64" width="64" height="64">
  <!-- Lüks altın gradienti arka plan -->
  <defs>
    <linearGradient id="luxuryGoldBg" x1="0%" y1="0%" x2="100%" y2="100%">
      <stop offset="0%" stop-color="#F5D060" />
      <stop offset="50%" stop-color="#FFCC33" />
      <stop offset="100%" stop-color="#F5A623" />
    </linearGradient>
    
    <!-- 3D altın efekti için gradient -->
    <linearGradient id="goldEdge" x1="0%" y1="0%" x2="100%" y2="100%">
      <stop offset="0%" stop-color="#FFF3B3" />
      <stop offset="50%" stop-color="#FBD072" />
      <stop offset="100%" stop-color="#D4Af37" />
    </linearGradient>
    
    <!-- Yazı için koyu altın gradient -->
    <linearGradient id="darkGold" x1="0%" y1="0%" x2="100%" y2="100%">
      <stop offset="0%" stop-color="#B8860B" />
      <stop offset="50%" stop-color="#966900" />
      <stop offset="100%" stop-color="#704214" />
    </linearGradient>
    
    <!-- Parlama efekti -->
    <filter id="glow" height="150%" width="150%" x="-25%" y="-25%">
      <feGaussianBlur stdDeviation="2" result="blur" />
      <feFlood flood-color="#FFF6CC" flood-opacity="0.7" result="glowColor" />
      <feComposite in="glowColor" in2="blur" operator="in" result="softGlow" />
      <feMerge>
        <feMergeNode in="softGlow" />
        <feMergeNode in="SourceGraphic" />
      </feMerge>
    </filter>
  </defs>
  
  <!-- Lüks altın arka plan daire -->
  <circle cx="32" cy="32" r="30" fill="url(#luxuryGoldBg)" />
  
  <!-- Dış kenar çizgisi - 3D altın hissi veren -->
  <circle cx="32" cy="32" r="30" fill="none" stroke="url(#goldEdge)" stroke-width="2" />
  
  <!-- İç detay çizgisi - derinlik hissi için -->
  <circle cx="32" cy="32" r="27" fill="none" stroke="#FFEB99" stroke-width="0.5" opacity="0.8" />
  
  <!-- Cryptonbets CB Stylized Logo -->
  <g filter="url(#glow)">
    <!-- C Harfi - Koyu altın tonunda premium görünüm için -->
    <path d="M22 20C22 17.8 23.8 16 26 16C28.2 16 30 17.8 30 20V44C30 46.2 28.2 48 26 48C23.8 48 22 46.2 22 44V36H28V44C28 45.1 27.1 46 26 46C24.9 46 24 45.1 24 44V20C24 18.9 24.9 18 26 18C27.1 18 28 18.9 28 20V26H22V20Z" fill="url(#darkGold)" />
    
    <!-- B Harfi -->
    <path d="M34 16H42C44.2 16 46 17.8 46 20V27C46 29.2 44.2 31 42 31C44.2 31 46 32.8 46 35V44C46 46.2 44.2 48 42 48H34V16ZM38 30H42C42 30 42 30 42 30V20C42 20 42 20 42 20H38V30ZM38 46H42C42 46 42 46 42 46V35C42 35 42 35 42 35H38V46Z" fill="url(#darkGold)" />
    
    <!-- C ve B harfleri arasındaki bağlantı çizgisi -->
    <rect x="29" y="31" width="5" height="2" fill="url(#darkGold)" />
  </g>
  
  <!-- Üst kısım parlama efekti - lüks hissi için -->
  <path d="M32 7C19.3 7 9 17.3 9 30C9 35.6 11.1 40.7 14.6 44.5C15.3 43.7 16.1 42.9 16.8 42.1C28.9 28.6 33.8 24.1 46.5 12.7C42.5 9.2 37.5 7 32 7Z" fill="white" opacity="0.2" />
  
  <!-- Altın yansıma efekti -->
  <path d="M50 30C50 41.6 40.8 51 29.2 51C23.2 51 17.7 48.6 13.8 44.7C28.9 43.5 36.3 38.3 47.4 27.2C48.1 28.1 48.6 29 49 30C49.6 26.8 50 30 50 30Z" fill="#FFFFCC" opacity="0.1" />
</svg>